<?xml version="1.0" encoding="UTF-8" standalone="no"?>
<!DOCTYPE svg PUBLIC "-//W3C//DTD SVG 1.1//EN" "http://www.w3.org/Graphics/SVG/1.1/DTD/svg11.dtd">
<svg width="100%" height="100%" viewBox="0 0 2500 2500" version="1.1" xmlns="http://www.w3.org/2000/svg" xmlns:xlink="http://www.w3.org/1999/xlink" xml:space="preserve" xmlns:serif="http://www.serif.com/" style="fill-rule:evenodd;clip-rule:evenodd;stroke-miterlimit:2.613;">
    <g transform="matrix(12.969765,0,0,12.969765,0,0)">
        <path d="M107.225,168.5C107.225,168.5 108.323,166.303 109.512,168.133C110.61,169.781 115.828,177.104 118.116,180.399C121.747,179.402 125.322,178.21 128.825,176.829L128.641,161.911C128.641,161.911 128.916,159.44 130.655,160.811C132.212,162.002 139.35,167.403 142.553,169.782C146.032,167.587 149.326,165.206 152.346,162.552L147.586,148.64C147.586,148.64 147.129,146.169 149.234,146.902C151.064,147.634 159.302,150.47 163.146,151.752C165.678,148.677 168.002,145.436 170.101,142.051L161.314,129.512C161.314,129.512 160.216,127.317 162.414,127.498C164.336,127.682 173.031,128.047 177.059,128.23C178.523,124.57 179.716,120.807 180.627,116.972L168.455,108.368C168.455,108.368 166.623,106.722 168.82,106.081C170.65,105.532 179.07,102.968 182.916,101.78C183.008,99.948 183.098,98.118 183.098,96.379C183.098,94.365 183.008,92.443 182.916,90.613C178.98,89.423 170.742,87.135 168.82,86.677C166.715,86.128 168.455,84.389 168.455,84.389L180.535,75.42C179.621,71.576 178.431,67.915 177.058,64.346C172.939,64.529 164.335,64.895 162.413,65.077C160.216,65.262 161.313,62.973 161.313,62.973L170.1,50.617C167.995,47.23 165.707,44.027 163.145,41.007C159.483,42.288 150.788,45.217 148.957,45.858C146.852,46.682 147.311,44.211 147.311,44.211L152.252,29.934C149.141,27.372 145.938,24.992 142.551,22.886C138.572,25.859 134.606,28.849 130.653,31.856C128.915,33.229 128.639,30.758 128.639,30.758L128.823,15.84C125.344,14.466 121.776,13.277 118.114,12.361C115.827,15.656 110.7,22.795 109.694,24.443C108.413,26.274 107.405,24.077 107.405,24.077L103.012,9.799C100.815,9.616 98.619,9.616 96.331,9.616C94.409,9.616 92.487,9.616 90.564,9.799L86.263,23.711C86.263,23.711 85.164,25.908 83.974,24.077C82.876,22.43 77.934,15.474 75.646,12.087C71.811,12.999 68.048,14.193 64.388,15.657L64.662,30.575C64.662,30.575 64.296,33.046 62.557,31.582C61.001,30.392 53.771,24.992 50.659,22.612C47.351,24.629 44.199,26.893 41.232,29.385L45.717,43.755C45.717,43.755 46.083,46.134 44.07,45.311C42.239,44.579 34.094,41.558 30.249,40.186C27.503,43.388 24.941,46.867 22.744,50.528L31.439,62.884C31.439,62.884 32.537,65.08 30.34,64.898C28.418,64.806 19.906,64.44 15.787,64.257C14.382,67.711 13.22,71.258 12.309,74.874L24.299,83.752C24.299,83.752 26.038,85.491 23.934,86.04C22.012,86.498 13.866,88.786 9.838,89.884C9.746,92.08 9.655,94.186 9.655,96.382C9.655,98.029 9.655,99.678 9.746,101.324C13.499,102.513 22.285,105.26 24.208,105.808C26.312,106.449 24.482,108.189 24.482,108.189L12.035,116.793C13.041,120.82 14.231,124.662 15.787,128.416C19.906,128.232 28.418,127.867 30.34,127.775C32.536,127.591 31.439,129.789 31.439,129.789L22.744,142.144C24.941,145.804 27.503,149.283 30.249,152.486C34.094,151.023 42.148,147.91 43.978,147.177C45.991,146.263 45.625,148.734 45.625,148.734L41.323,163.379C44.252,165.85 47.364,168.047 50.567,170.061C53.771,167.68 60.909,162.28 62.374,161.09C64.204,159.717 64.479,162.19 64.479,162.19L64.295,177.016C68.139,178.481 72.074,179.762 76.193,180.768C78.389,177.381 83.24,170.061 84.247,168.413C85.437,166.491 86.535,168.688 86.535,168.688L91.387,182.965C93.034,183.057 94.682,183.149 96.329,183.149C98.526,183.149 100.721,183.057 102.827,182.874L107.225,168.5Z" style="fill:rgb(24,121,191);stroke:white;stroke-width:1.94px;"/>
        <path d="M167.264,133.172C167.264,131.524 168.545,130.151 170.285,130.151C171.931,130.151 173.305,131.524 173.305,133.172C173.305,134.818 171.932,136.192 170.285,136.192C168.545,136.191 167.264,134.818 167.264,133.172ZM172.939,133.172C172.9,131.744 171.714,130.59 170.285,130.59C168.856,130.59 167.67,131.744 167.631,133.172C167.631,134.635 168.82,135.826 170.285,135.826C171.75,135.826 172.939,134.635 172.939,133.172ZM171.75,134.818L171.293,134.818L170.285,133.263L169.553,133.263L169.553,134.818L169.096,134.818L169.096,131.431L170.651,131.431C170.926,131.431 171.2,131.431 171.475,131.615C171.659,131.799 171.842,132.072 171.842,132.347C171.842,132.988 171.383,133.263 170.742,133.263L171.75,134.818ZM170.193,132.988C170.65,132.988 171.382,133.08 171.382,132.347C171.382,131.798 170.925,131.798 170.56,131.798L169.552,131.798L169.552,132.987L170.193,132.987L170.193,132.988Z" style="fill:rgb(24,121,191);"/>
        <path d="M125.162,103.975L154.726,103.975L154.726,117.887L125.162,117.887L125.162,103.975ZM29.885,117.611L55.969,64.253L81.23,64.253L81.23,117.887L66.586,117.887L66.586,103.975L52.675,103.975L45.536,117.887L29.885,117.611ZM66.586,75.51L56.426,95.828L66.586,95.828L66.586,75.51ZM99.627,64.253C99.627,64.253 83.61,64.161 83.61,80.087C83.61,96.012 98.621,97.111 98.621,97.111L103.289,97.111C103.289,97.111 107.682,96.927 107.865,99.765C108.138,104.523 104.478,104.431 103.105,104.431L83.61,104.431L83.61,118.07L103.105,118.07C103.105,118.07 122.416,118.619 122.783,100.039C123.148,84.48 104.021,83.382 104.021,83.382C104.021,83.382 98.986,83.199 98.986,79.538C98.986,79.538 99.078,77.25 101.64,77.25L154.726,77.25L154.726,64.253L99.627,64.253ZM125.162,84.114L154.635,84.114L154.635,97.385L125.162,97.385L125.162,84.114ZM46.359,133.629L52.308,133.629L52.308,136.283L45.719,136.283C45.719,136.283 40.96,136.832 40.96,132.531L40.96,127.771C40.96,127.771 40.776,124.017 45.719,124.109L52.308,124.109L52.308,126.763L46.451,126.763C46.451,126.763 44.987,126.673 44.895,127.771L44.895,132.531C44.895,132.531 44.803,133.629 46.359,133.629ZM145.848,124.109C145.848,124.109 149.692,123.836 149.967,126.763L149.967,132.531C149.967,132.531 149.967,136.283 146.854,136.283L136.879,136.283L136.879,124.109L145.848,124.109ZM140.63,133.629L145.391,133.629C145.391,133.629 146.58,133.629 146.58,132.531L146.58,128.045C146.58,128.045 146.672,126.764 145.023,126.764L140.63,126.764L140.63,133.629ZM126.719,133.629L133.584,133.629L133.584,136.283L122.967,136.283L122.967,124.109L133.584,124.109L133.584,126.763L126.719,126.763L126.719,128.687L133.217,128.687L133.217,131.158L126.719,131.158L126.719,133.629ZM58.898,133.629L65.762,133.629L65.762,136.283L55.146,136.283L55.146,124.109L65.763,124.109L65.763,126.763L58.899,126.763L58.899,128.687L65.398,128.687L65.398,131.158L58.899,131.158L58.899,133.629L58.898,133.629ZM116.469,124.109L120.129,124.109L120.129,136.283L116.469,136.283L116.469,124.109ZM96.973,124.109L100.635,124.109L100.635,136.283L96.973,136.283L96.973,124.109ZM91.115,126.764L91.115,136.284L87.363,136.284L87.363,126.764L83.885,126.764L83.885,124.11L94.685,124.11L94.685,126.764L91.115,126.764ZM77.112,129.693L73.817,129.693L78.211,136.283L82.238,136.283L79.218,131.888C79.401,131.798 82.055,132.072 82.238,128.411C82.512,123.927 78.577,124.108 78.577,124.108L69.15,124.108L69.15,136.282L72.903,136.282L72.903,126.762L76.93,126.762C78.852,126.762 78.852,127.862 78.852,127.862L78.852,128.503C78.851,128.504 78.851,129.693 77.112,129.693ZM107.133,128.688L113.631,128.688L113.631,131.159L107.133,131.159L107.133,136.284L103.381,136.284L103.381,124.11L113.996,124.11L113.996,126.764L107.133,126.764L107.133,128.688Z" style="fill:white;"/>
    </g>
</svg>
