<?xml version="1.0" encoding="UTF-8" standalone="no"?>
<!DOCTYPE svg PUBLIC "-//W3C//DTD SVG 1.1//EN" "http://www.w3.org/Graphics/SVG/1.1/DTD/svg11.dtd">
<svg width="100%" height="100%" viewBox="0 0 2500 988" version="1.1" xmlns="http://www.w3.org/2000/svg" xmlns:xlink="http://www.w3.org/1999/xlink" xml:space="preserve" xmlns:serif="http://www.serif.com/" style="fill-rule:evenodd;clip-rule:evenodd;stroke-linejoin:round;stroke-miterlimit:2;">
    <g id="Elliott-Auto-White-text-transparent-5.png" transform="matrix(2.439453,0,0,2.439453,0,1)">
        <path d="M310.343,93.753C320.116,96.165 376.247,100.752 378.498,100.782C382.442,100.835 463.592,45.508 494.265,27.147C502.778,22.051 493.692,17.741 492.999,17.084C487.227,11.614 561.584,2.116 564.499,1.469C598.225,0.868 600.722,1.139 626.501,1.469C636.086,3.062 635.999,3.099 637.522,3.232C773.059,15.092 894.97,74.05 919.154,83.977C919.316,84.043 923.66,86.598 918.446,86.048C858.526,79.73 716.924,97.508 714.746,99.734C710.036,104.549 731.309,96.117 805.509,93.885C945.024,89.687 1010.267,128.273 979.466,117.952C889.599,87.841 759.376,108.619 690.632,135.827C684.93,138.084 685.975,140.941 685.05,143.301C684.31,145.189 678.416,144.983 667.468,144.861C663.521,144.817 666.993,140.362 666.035,138.807C664.751,136.723 457.236,138.425 386.542,144.974C333.638,149.875 325.66,152.635 321.393,160.441C314.416,173.204 303.356,161.811 299.935,157.159C298.441,155.126 291.248,145.345 274.487,138.53C224.456,118.189 179.329,133.223 121.893,184.943C107.856,197.583 120.58,251.897 117.366,254.269C116.335,255.031 50.1,258.181 49.483,258.186C22.506,258.392 57.851,264.766 124.516,260.718C131.79,260.276 123.574,251.688 128.977,220.584C132.517,200.211 143.72,185.006 143.777,184.964C155.669,176.335 128.135,193.049 138.985,265.426C140.044,272.492 142.297,271.024 147.515,271.411C150.055,271.6 149.114,278.756 147.487,280.487C141.976,286.351 115.219,277.251 112.554,276.345C109.963,275.464 56.607,277.531 27.603,267.211C14.058,262.392 28.223,256.661 28.346,256.417C30.994,251.144 31.39,251.414 36.336,248.252C47.425,241.163 25.563,213.666 30.449,189.486C33.756,173.122 112.511,137.895 114.539,137.253C143.099,128.212 106.611,140.26 81.845,156.993C69.251,165.501 80.737,166.588 81.501,166.548C103.902,165.369 151.507,119.74 157.873,113.924C160.122,111.869 160.635,112.857 251.48,108.137C349.065,103.068 349.296,105.198 353.651,103.695C362.546,100.624 333.148,102.641 282.499,103.162C253.539,103.46 242.474,104.095 249.693,101.828C275.081,93.859 303.74,91.364 308.507,90.949C327.253,89.287 334.613,91.425 331.662,92.651C329.533,93.535 316.029,91.337 310.343,93.753ZM471.682,102.118C527.018,98.108 646.218,89.138 646.442,89.089C649.568,88.414 651.843,79.18 662.92,47.639C664.895,42.014 664.918,42.171 666.834,36.617C668.769,31.01 670.717,30.473 668.278,28.904C665.591,27.175 552.059,5.314 501.792,36.953C498.506,39.021 465.859,59.57 460.76,62.883C456.091,65.917 416.383,91.719 401.768,99.827C396.723,102.626 404.184,102.017 404.46,101.995C406.989,101.788 416.098,103.558 419.309,100.309C442.987,76.348 458.576,69.435 471.106,78.97C479.443,85.315 473.323,97.156 472.602,98.552C471.728,100.241 472.15,100.303 471.682,102.118ZM795.462,78.092C796.531,77.924 808.005,76.126 807.303,71.534C806.419,65.751 695.377,32.716 691.341,34.111C689.571,34.723 683.93,84.888 684.456,85.531C685.728,87.087 732.882,82.199 795.462,78.092Z" style="fill:rgb(82,130,215);fill-opacity:1;"/>
        <path d="M272.152,249.442C272.008,250.324 270.459,259.834 269.403,260.264C266.756,261.344 200.686,259.231 199.456,261.471C198.692,262.863 196.792,271.3 199.521,271.371C264.287,273.062 268.604,268.071 267.899,273.498C267.059,279.965 262.267,305.749 261.747,308.548C261.162,311.693 259.656,311.164 210.5,311.164C152.184,311.164 150.805,311.475 150.894,309.484C150.909,309.167 164.19,233.503 164.646,231.542C165.165,229.31 166.287,229.619 240.5,229.619C273.421,229.619 273.368,229.612 273.486,229.622C276.521,229.88 274.425,236.679 272.152,249.442Z" style="fill:rgb(253,253,253);fill-opacity:1;"/>
        <path d="M574.117,272.435C581.132,230.65 581.439,229.819 583.512,229.64C583.813,229.614 619.087,229.591 619.473,229.649C624.179,230.361 611.745,270.066 615.572,271.281C616.466,271.565 650.463,271.394 653.497,271.379C657.504,271.359 657.27,264.845 662.909,232.57C663.41,229.699 664.542,229.63 666.501,229.622C699.557,229.487 699.817,228.423 702.269,229.899C704.208,231.066 693.355,284.94 693.197,285.405C684.473,311.109 659.152,311.157 655.5,311.163C588.818,311.288 587.372,311.932 579.836,304.17C568.769,292.771 572.767,279.926 574.117,272.435Z" style="fill:rgb(253,253,253);fill-opacity:1;"/>
        <path d="M387.15,288.433C383.53,309.383 383.422,311.026 381.456,311.132C380.366,311.191 290.629,311.154 277.5,311.164C267.139,311.172 273.498,305.619 275.227,295.453C279.359,271.151 286.394,231.162 286.734,230.639C287.565,229.365 289.067,229.612 320.5,229.619C324.83,229.62 326.755,229.136 326.019,233.416C325.551,236.138 323.024,250.819 320.059,267.428C319.529,270.395 319.462,271.387 322.503,271.387C388.24,271.403 390.25,270.849 389.862,273.503C389.686,274.704 389.661,274.609 387.15,288.433Z" style="fill:rgb(252,252,252);fill-opacity:1;"/>
        <path d="M446.098,243.423C441.615,268.937 440.605,271.357 443.509,271.393C470.486,271.727 510.954,270.321 511.571,272.471C511.862,273.484 505.592,310.022 504.587,310.602C503.163,311.424 503.021,311.118 399.5,311.164C392.204,311.167 394.893,307.581 396.121,300.43C397.081,294.837 407.867,232.018 408.7,230.621C408.859,230.356 408.816,229.48 445.497,229.614C449.843,229.63 447.211,237.088 446.098,243.423Z" style="fill:rgb(252,252,252);fill-opacity:1;"/>
        <path d="M972.898,206.575C972.561,208.518 972.112,218.598 968.508,218.647C959.148,218.774 905.569,219.5 851.488,218.66C848.748,218.617 848.823,216.822 854.983,184.592C856.401,177.178 858.869,178.902 866.5,178.899C976.694,178.855 976.897,179.1 977.298,179.625C977.871,180.375 977.59,180.418 972.898,206.575Z" style="fill:rgb(252,252,252);fill-opacity:1;"/>
        <path d="M730.5,178.899C843.491,178.899 844.548,178.683 844.775,180.458C845.162,183.486 839.007,213.612 838.421,216.478C837.977,218.653 832.08,218.653 831.5,218.653C718.653,218.65 718.752,218.682 718.481,218.656C715.508,218.364 715.975,216.546 722.829,181.564C723.754,176.842 725.659,178.981 730.5,178.899Z" style="fill:rgb(252,252,252);fill-opacity:1;"/>
        <path d="M451.097,356.428C446.963,381.091 447.622,393.395 430.501,393.61C378.453,394.266 377.28,393.152 373.996,390.033C371.256,387.43 371.182,386.673 378.473,343.496C381.185,327.435 390.095,329.9 434.5,329.905C437.018,329.905 450.593,328.017 453.409,337.522C454.034,339.63 453.504,342.384 451.097,356.428ZM391.187,375.444C391.434,378.021 390.719,378.826 392.4,378.903C395.328,379.037 427.265,380.497 429.028,378.144C429.32,377.754 435.403,346.12 434.133,344.965C433.587,344.469 397.435,343.643 396.462,345.475C395.321,347.625 395.902,347.802 391.187,375.444Z" style="fill:rgb(251,0,0);fill-opacity:1;"/>
        <path d="M556.097,361.428C558.694,344.789 558.708,335.165 567.467,331.424C570.478,330.139 570.557,329.796 621.496,329.91C639.812,329.951 632.871,349.423 632.504,351.501C626.702,384.352 627.756,388.48 618.413,392.292C614.418,393.922 614.34,393.954 564.499,393.608C547.283,393.488 553.154,378.236 556.097,361.428ZM574.189,361.449C571.27,377.63 571.398,378.706 573.437,378.925C573.527,378.934 607.137,378.946 607.537,378.913C610.117,378.701 610.331,377.81 615.105,347.445C615.69,343.726 613.162,344.49 581.5,344.506C580.583,344.506 577.876,344.125 576.884,345.702C576.546,346.238 574.385,360.186 574.189,361.449Z" style="fill:rgb(251,0,0);fill-opacity:1;"/>
        <path d="M587.948,200.707C589.09,198.547 591.601,192.174 601.807,184.95C610.387,178.876 611.091,178.643 680.495,178.903C714.073,179.029 708.593,217.819 703.516,218.605C702.869,218.705 585.57,218.64 585.476,218.637C584.029,218.588 581.915,217.593 587.948,200.707Z" style="fill:rgb(253,253,253);fill-opacity:1;"/>
        <path d="M281.166,198.439C279.479,208.207 278.817,218.568 275.511,218.636C274.001,218.667 190.11,218.648 171.5,218.653C163.425,218.655 167.694,214.384 169.173,206.442C172.754,187.218 171.988,178.902 177.502,178.899C283.731,178.832 283.894,179.277 284.187,179.69C284.654,180.347 284.258,181.565 281.166,198.439Z" style="fill:rgb(252,252,252);fill-opacity:1;"/>
        <path d="M524.071,386.424C527.239,366.16 528.971,366.144 528.045,364.634C527.295,363.411 526.711,364.471 515.785,377.722C503.939,392.089 504.194,394.519 494.491,393.564C490.78,393.198 479.91,364.579 478.505,364.477C476.815,364.354 474.705,385.229 473.03,392.311C472.506,394.529 456.158,393.633 455.685,393.262C454.261,392.144 465.36,331.044 465.7,330.664C466.88,329.344 481.254,329.962 481.599,330.043C484.442,330.706 497.607,361.399 500.899,367.236C502.578,370.213 503.753,367.353 529.57,335.557C536.274,327.301 537.899,329.903 548.494,329.898C552.628,329.896 551.1,332.57 548.693,346.534C544.978,368.085 545.276,368.008 541.625,389.524C540.906,393.757 539.375,394.207 524.48,393.579C521.43,393.451 523.344,391.907 524.071,386.424Z" style="fill:rgb(252,0,0);fill-opacity:1;"/>
        <path d="M923.181,255.442C922.452,259.843 914.318,308.951 913.256,310.316C912.451,311.351 911.983,311.178 879.5,311.164C875.891,311.162 873.425,311.93 874.436,306.487C879.383,279.857 886.838,231.129 888.729,229.937C888.993,229.771 926.566,228.661 927.319,230.574C927.964,232.213 923.588,253.467 923.181,255.442Z" style="fill:rgb(252,252,252);fill-opacity:1;"/>
        <path d="M524.081,266.421C524.515,263.788 525.119,260.112 529.816,233.556C530.373,230.408 530.315,229.643 533.502,229.622C567.213,229.402 567.837,228.141 569.751,230.321C570.508,231.183 556.394,310.15 555.598,310.614C553.037,312.11 552.901,311.452 518.524,311.17C514.916,311.141 516.42,308.749 524.081,266.421Z" style="fill:rgb(252,252,252);fill-opacity:1;"/>
        <path d="M760.5,229.619C793.243,229.618 793.522,229.506 794.145,229.99C795.706,231.2 780.82,310.03 780.417,310.425C778.882,311.93 742.295,310.984 742.286,310.98C740.583,310.382 740.865,309.674 744.779,288.552C745.416,285.112 749.986,260.448 752.527,245.505C754.291,235.128 749.889,229.913 760.5,229.619Z" style="fill:rgb(252,252,252);fill-opacity:1;"/>
        <path d="M175.5,385.079C143.883,385.078 143.459,384.802 142.109,386.078C138.904,389.108 138.653,393.48 133.501,393.618C118.478,394.019 117.93,393.783 117.886,392.532C117.878,392.305 159.771,332.548 160.553,331.541C162.911,328.504 178.926,330.008 179.485,330.519C180.854,331.772 202.456,392.137 202.406,392.483C202.211,393.832 184.746,395.474 182.838,391.351C180.953,387.278 181.822,385.519 175.5,385.079ZM157.387,363.424C156.659,364.418 151.891,370.232 154.539,370.371C174.294,371.41 174.858,370.11 174.771,368.486C174.694,367.042 174.275,367.27 168.367,351.578C167.362,348.907 166.061,351.104 157.387,363.424Z" style="fill:rgb(251,0,0);fill-opacity:1;"/>
        <path d="M836.242,358.456C840.585,333.733 840.344,333.722 840.802,331.591C841.164,329.905 848.791,329.905 849.5,329.905C906.171,329.902 906.568,329.764 907.087,330.73C907.727,331.922 905.339,342.95 905.164,343.331C904.09,345.676 874.035,344.052 858.508,344.556C856.463,344.622 855.716,348.875 855.269,352.488C854.937,355.17 856.762,353.971 878.485,354.592C881.543,354.679 878.273,367.143 878.214,367.417C877.598,370.235 870.571,369.338 855.498,369.382C851.541,369.394 851.793,373.139 851.327,376.481C850.789,380.344 853.631,378.472 896.49,378.921C899.282,378.95 899.279,379.823 898.834,382.548C898.686,383.454 897.079,393.31 895.507,393.532C893.741,393.781 838.457,393.636 833.496,393.623C829.039,393.611 831.271,390.867 836.242,358.456Z" style="fill:rgb(250,0,0);fill-opacity:1;"/>
        <path d="M286.149,378.439C285.914,379.661 286.207,387.861 277.29,392.056C273.322,393.923 272.98,394.084 222.498,393.608C204.988,393.442 211.906,378.264 216.717,347.534C218.309,337.363 218.447,329.954 222.509,329.905C229.349,329.823 237.965,328.82 237.332,332.477C229.558,377.425 229.581,378.499 231.403,378.883C231.673,378.94 265.85,379.014 266.586,378.835C268.65,378.33 268.089,377.463 274.196,342.447C274.573,340.287 275.079,329.987 278.519,329.911C286.234,329.739 294.589,329.032 294.035,332.448C291.116,350.482 286.802,374.764 286.149,378.439Z" style="fill:rgb(250,0,0);fill-opacity:1;"/>
        <path d="M826.847,339.742C795.156,385.073 790.118,393.533 787.507,393.586C773.851,393.863 771.373,393.548 770.779,392.337C769.61,389.955 748.458,331.629 748.457,331.501C748.432,328.943 766.444,328.964 767.485,331.508C774.601,348.897 782.043,373.86 784.216,373.007C785.031,372.688 812.796,330.848 815.391,330.12C815.547,330.076 832.245,329.201 832.508,330.495C832.946,332.651 832.066,332.378 826.847,339.742Z" style="fill:rgb(251,0,0);fill-opacity:1;"/>
        <path d="M1022.5,403.999C1023.215,387.714 1023.217,2.288 1022.45,1.552C1021.655,0.789 652.978,0.954 626.501,1.469C600.722,1.139 598.225,0.868 564.499,1.469C545.927,1.08 545.938,1.124 283.5,1.124C190.164,1.124 96.828,1.124 3.492,1.125C-0.27,1.138 1.034,8.786 1.034,10.5C1.034,393.524 0.986,393.523 1.5,403.999C1.402,403.509 0.098,404.489 0,403.999C-0.49,401.548 0,399 0,396.5L0,0C2.161,-1.297 2.397,0 31.5,0L1023.999,0C1025.409,1.244 1023.999,1.679 1023.999,23.5L1023.999,403.999C1023.841,404.473 1022.658,403.525 1022.5,403.999Z" style="fill:rgb(1,2,4);fill-opacity:0.31;"/>
        <path d="M660.708,385.539C664.629,360.382 665.316,360.552 667.104,346.494C667.561,342.903 649.02,344.985 645.5,344.501C642.404,344.076 644.988,330.629 647.569,329.956C647.765,329.905 709.811,329.808 710.636,330.002C713.454,330.665 710.527,342.047 710.446,342.486C709.717,346.456 688.606,343.65 686.569,344.702C683.698,346.184 679.026,390.799 676.909,392.908C675.587,394.224 660.779,393.542 660.523,393.447C658.569,392.725 659.743,391.999 660.708,385.539Z" style="fill:rgb(250,0,0);fill-opacity:1;"/>
        <path d="M336.17,390.437C336.052,390.939 336.258,393.563 333.508,393.605C326.211,393.718 317.907,394.457 318.008,391.507C318.103,388.708 326.441,346.205 325.1,344.973C323.265,343.288 302.323,346.656 302.359,342.498C302.465,330.024 305.465,329.944 306.525,329.916C321.813,329.508 363.52,329.857 368.475,329.898C371.978,329.928 370.614,344.498 365.5,344.507C349.787,344.536 344.246,343.276 343.474,347.495C342.847,350.923 342.988,350.884 336.17,390.437Z" style="fill:rgb(250,0,0);fill-opacity:1;"/>
        <path d="M332.166,198.435C329.127,216.361 329.516,218.651 325.501,218.654C290.878,218.682 288.903,219.389 289.212,216.497C289.384,214.879 295.42,180.396 295.888,179.774C296.772,178.603 300.09,178.919 331.5,178.897C334.164,178.896 335.456,177.828 335.41,180.507C335.385,181.964 335.226,181.871 332.166,198.435Z" style="fill:rgb(251,251,251);fill-opacity:1;"/>
        <path d="M533.272,214.462C536.659,195.045 536.798,195.109 537.08,193.422C537.523,190.776 537.931,188.125 538.387,185.481C539.367,179.8 539.782,178.9 545.5,178.899C576.995,178.895 579.005,178.44 579.153,180.516C579.164,180.663 573.041,215.156 572.69,216.556C572.014,219.256 570.007,218.661 542.5,218.653C536.032,218.651 532.526,220.874 533.272,214.462Z" style="fill:rgb(252,252,252);fill-opacity:1;"/>
        <path d="M451.079,215.417C448.919,221.461 446.871,218.646 440.5,218.653C413.448,218.682 410.667,219.218 411.049,216.5C411.47,213.495 416.119,180.393 418.359,179.283C419.363,178.786 420.766,178.9 451.5,178.899C455.525,178.899 457.876,177.431 457.156,181.454C453.369,202.591 453.386,202.582 453.043,204.416C452.003,209.984 452.095,209.916 451.079,215.417Z" style="fill:rgb(251,251,251);fill-opacity:1;"/>
        <path d="M715.692,370.533C716.183,367.331 721.649,331.7 722.651,330.639C723.29,329.963 740.746,327.964 740.108,332.461C739.465,336.994 730.077,392.125 730.032,392.314C729.725,393.606 729.322,394.258 713.485,393.562C711.636,393.48 711.827,392.309 715.692,370.533Z" style="fill:rgb(251,0,0);fill-opacity:1;"/>
    </g>
</svg>
