<?xml version="1.0" encoding="UTF-8" standalone="no"?>
<!DOCTYPE svg PUBLIC "-//W3C//DTD SVG 1.1//EN" "http://www.w3.org/Graphics/SVG/1.1/DTD/svg11.dtd">
<svg width="3300px" height="988px" version="1.1" xmlns="http://www.w3.org/2000/svg" xmlns:xlink="http://www.w3.org/1999/xlink" xml:space="preserve" xmlns:serif="http://www.serif.com/" style="fill-rule:evenodd;clip-rule:evenodd;stroke-linejoin:round;stroke-miterlimit:2;">
    <g id="Logo" transform="matrix(1.301208,0,0,1.301208,-520.479459,-1088.03839)">
        <path id="Logo1" serif:id="Logo" d="M1351.475,929.634L1257.841,929.634L1257.841,836L1351.475,836L1351.475,929.634ZM1007.55,1569.473L583.502,1569.473L399.824,995.794C399.824,995.794 469.811,967.16 605.438,947.214L733.491,1196.49L629.163,917.039C638.593,914.903 724.341,896.503 879.52,896.503C963.496,896.503 1027.753,901.892 1070.574,907.175L1070.574,835.999L1164.208,835.999L1164.208,929.633L1070.574,929.633L1070.574,1023.267L1092.172,1023.267L1027.502,1196.49L1116.486,1023.267L1164.207,1023.267L1164.207,1116.901L1257.841,1116.901L1257.841,1023.267L1351.475,1023.267L1351.475,929.633L1445.109,929.633L1445.109,1023.267L1352.78,1023.267L1177.898,1569.472L1007.55,1569.472L1033.318,1337.311L1033.323,1337.298L1033.323,1337.264C1033.305,1253.044 964.924,1184.674 880.7,1184.674C796.487,1184.674 728.112,1253.027 728.077,1337.232L728.077,1337.298C728.077,1337.304 728.08,1337.31 728.086,1337.315L753.722,1569.452L1007.55,1569.472L1007.55,1569.473ZM1164.207,1023.268L1164.207,948.93C1200.232,954.447 1231.488,960.521 1257.841,966.416L1257.841,1023.268L1164.207,1023.268Z"/>
        <g id="Text">
            <g id="Keystone">
                <path d="M1654.738,1315.697L1588.816,1315.697L1513.072,1208.49L1488.601,1233.627L1488.601,1315.697L1438.161,1315.697L1438.161,1070.321L1488.601,1070.321L1488.601,1171.368L1583.322,1070.321L1649.577,1070.321L1549.029,1171.368L1654.737,1315.697L1654.738,1315.697Z" style="fill-rule:nonzero;"/>
                <path d="M1835.025,1262.426C1833.804,1273.191 1828.2,1284.123 1818.212,1295.221C1802.675,1312.867 1780.923,1321.69 1752.956,1321.69C1729.872,1321.69 1709.507,1314.254 1691.862,1299.383C1674.216,1284.512 1665.393,1260.318 1665.393,1226.802C1665.393,1195.395 1673.356,1171.312 1689.281,1154.554C1705.207,1137.796 1725.877,1129.417 1751.291,1129.417C1766.384,1129.417 1779.979,1132.247 1792.076,1137.907C1804.173,1143.567 1814.161,1152.501 1822.041,1164.709C1829.144,1175.474 1833.749,1187.959 1835.858,1202.165C1837.079,1210.488 1837.578,1222.474 1837.356,1238.122L1713.17,1238.122C1713.836,1256.323 1719.551,1269.085 1730.316,1276.41C1736.864,1280.96 1744.743,1283.235 1753.955,1283.235C1763.721,1283.235 1771.656,1280.461 1777.76,1274.912C1781.089,1271.916 1784.03,1267.754 1786.583,1262.427L1835.026,1262.427L1835.025,1262.426ZM1788.081,1206.825C1787.304,1194.284 1783.503,1184.768 1776.678,1178.275C1769.853,1171.783 1761.391,1168.537 1751.291,1168.537C1740.304,1168.537 1731.786,1171.977 1725.738,1178.858C1719.69,1185.739 1715.889,1195.061 1714.335,1206.825L1788.081,1206.825Z" style="fill-rule:nonzero;"/>
                <path d="M1943.064,1268.086L1980.52,1134.244L2030.96,1134.244L1968.7,1312.7C1956.714,1347.104 1947.225,1368.44 1940.234,1376.708C1933.242,1384.976 1919.259,1389.11 1898.284,1389.11C1894.067,1389.11 1890.682,1389.082 1888.129,1389.027C1885.576,1388.972 1881.748,1388.777 1876.643,1388.444L1876.643,1350.489L1882.636,1350.822C1887.297,1351.044 1891.736,1350.877 1895.954,1350.323C1900.171,1349.768 1903.723,1348.492 1906.608,1346.494C1909.382,1344.607 1911.963,1340.668 1914.349,1334.675C1916.735,1328.682 1917.706,1325.02 1917.262,1323.688L1850.674,1134.245L1903.445,1134.245L1943.065,1268.087L1943.064,1268.086Z" style="fill-rule:nonzero;"/>
                <path d="M2183.946,1142.568C2198.151,1151.668 2206.308,1167.317 2208.417,1189.512L2160.973,1189.512C2160.307,1183.408 2158.587,1178.58 2155.812,1175.029C2150.596,1168.592 2141.718,1165.374 2129.177,1165.374C2118.856,1165.374 2111.503,1166.983 2107.12,1170.202C2102.736,1173.42 2100.544,1177.194 2100.544,1181.522C2100.544,1186.96 2102.875,1190.9 2107.536,1193.341C2112.197,1195.894 2128.678,1200.277 2156.978,1206.492C2175.845,1210.931 2189.995,1217.645 2199.428,1226.635C2208.75,1235.735 2213.411,1247.111 2213.411,1260.761C2213.411,1278.74 2206.724,1293.417 2193.351,1304.792C2179.978,1316.167 2159.308,1321.855 2131.341,1321.855C2102.819,1321.855 2081.761,1315.834 2068.166,1303.793C2054.571,1291.752 2047.773,1276.409 2047.773,1257.764L2095.883,1257.764C2096.882,1266.198 2099.046,1272.191 2102.375,1275.743C2108.257,1282.069 2119.133,1285.232 2135.003,1285.232C2144.325,1285.232 2151.733,1283.845 2157.227,1281.07C2162.721,1278.296 2165.467,1274.134 2165.467,1268.585C2165.467,1263.258 2163.247,1259.207 2158.808,1256.433C2154.369,1253.659 2137.888,1248.886 2109.366,1242.117C2088.835,1237.012 2074.352,1230.631 2065.917,1222.973C2057.483,1215.426 2053.265,1204.55 2053.265,1190.345C2053.265,1173.587 2059.841,1159.187 2072.992,1147.146C2086.143,1135.105 2104.649,1129.084 2128.51,1129.084C2151.15,1129.084 2169.628,1133.579 2183.944,1142.568L2183.946,1142.568Z" style="fill-rule:nonzero;"/>
                <path d="M2301.232,1085.303L2302.139,1085.303L2302.139,1135.91L2331.604,1135.91L2331.604,1169.703L2302.139,1169.703L2302.139,1265.59C2302.139,1273.026 2303.082,1277.659 2304.969,1279.49C2306.856,1281.321 2312.627,1282.237 2322.282,1282.237C2323.725,1282.237 2325.251,1282.209 2326.86,1282.154C2328.469,1282.099 2330.051,1282.015 2331.604,1281.904L2331.604,1317.362L2309.131,1318.194C2286.713,1318.971 2271.398,1315.087 2263.185,1306.541C2257.858,1301.103 2255.194,1292.724 2255.194,1281.404L2255.194,1169.703L2229.891,1169.703L2229.891,1135.91L2255.194,1135.91L2255.194,1119.831L2301.232,1085.303Z"/>
                <path d="M2513.389,1157.217C2528.704,1176.417 2536.362,1199.112 2536.362,1225.303C2536.362,1251.938 2528.704,1274.717 2513.389,1293.639C2498.074,1312.561 2474.824,1322.022 2443.638,1322.022C2412.453,1322.022 2389.202,1312.561 2373.887,1293.639C2358.572,1274.717 2350.914,1251.938 2350.914,1225.303C2350.914,1199.112 2358.572,1176.416 2373.887,1157.217C2389.202,1138.017 2412.452,1128.418 2443.638,1128.418C2474.823,1128.418 2498.074,1138.018 2513.389,1157.217ZM2443.472,1168.537C2429.6,1168.537 2418.918,1173.448 2411.427,1183.27C2403.936,1193.092 2400.19,1207.103 2400.19,1225.304C2400.19,1243.505 2403.936,1257.544 2411.427,1267.421C2418.918,1277.298 2429.6,1282.237 2443.472,1282.237C2457.344,1282.237 2467.999,1277.298 2475.434,1267.421C2482.87,1257.544 2486.587,1243.505 2486.587,1225.304C2486.587,1207.103 2482.869,1193.092 2475.434,1183.27C2467.998,1173.448 2457.344,1168.537 2443.472,1168.537Z" style="fill-rule:nonzero;"/>
                <path d="M2655.721,1169.37C2639.629,1169.37 2628.586,1176.195 2622.594,1189.846C2619.487,1197.06 2617.933,1206.271 2617.933,1217.48L2617.933,1315.697L2570.656,1315.697L2570.656,1134.578L2616.435,1134.578L2616.435,1161.047C2622.539,1151.725 2628.31,1145.01 2633.748,1140.904C2643.514,1133.579 2655.888,1129.917 2670.871,1129.917C2689.627,1129.917 2704.97,1134.828 2716.9,1144.65C2728.83,1154.472 2734.796,1170.758 2734.796,1193.509L2734.796,1315.698L2686.187,1315.698L2686.187,1205.329C2686.187,1195.785 2684.911,1188.46 2682.358,1183.355C2677.697,1174.033 2668.818,1169.372 2655.723,1169.372L2655.721,1169.37Z" style="fill-rule:nonzero;"/>
                <path d="M2933.892,1262.426C2932.671,1273.191 2927.067,1284.123 2917.079,1295.221C2901.542,1312.867 2879.79,1321.69 2851.823,1321.69C2828.739,1321.69 2808.374,1314.254 2790.729,1299.383C2773.083,1284.512 2764.26,1260.318 2764.26,1226.802C2764.26,1195.395 2772.223,1171.312 2788.148,1154.554C2804.074,1137.796 2824.744,1129.417 2850.158,1129.417C2865.251,1129.417 2878.846,1132.247 2890.943,1137.907C2903.04,1143.567 2913.028,1152.501 2920.908,1164.709C2928.011,1175.474 2932.616,1187.959 2934.725,1202.165C2935.946,1210.488 2936.445,1222.474 2936.223,1238.122L2812.037,1238.122C2812.703,1256.323 2818.418,1269.085 2829.183,1276.41C2835.731,1280.96 2843.61,1283.235 2852.822,1283.235C2862.588,1283.235 2870.523,1280.461 2876.627,1274.912C2879.956,1271.916 2882.897,1267.754 2885.45,1262.427L2933.893,1262.427L2933.892,1262.426ZM2886.948,1206.825C2886.171,1194.284 2882.37,1184.768 2875.545,1178.275C2868.72,1171.783 2860.258,1168.537 2850.158,1168.537C2839.171,1168.537 2830.653,1171.977 2824.605,1178.858C2818.557,1185.739 2814.756,1195.061 2813.202,1206.825L2886.948,1206.825Z" style="fill-rule:nonzero;"/>
            </g>
            <g id="Digital">
                <path d="M1498.156,1553.509L1438.161,1553.509L1438.161,1414.246L1498.156,1414.246C1506.785,1414.372 1513.966,1415.38 1519.697,1417.269C1529.46,1420.481 1537.365,1426.371 1543.411,1434.937C1548.261,1441.866 1551.568,1449.361 1553.331,1457.423C1555.095,1465.485 1555.976,1473.17 1555.976,1480.476C1555.976,1498.994 1552.26,1514.678 1544.827,1527.527C1534.749,1544.848 1519.191,1553.509 1498.154,1553.509L1498.156,1553.509ZM1519.792,1449.77C1515.32,1442.212 1506.47,1438.432 1493.243,1438.432L1466.411,1438.432L1466.411,1529.322L1493.243,1529.322C1506.974,1529.322 1516.548,1522.551 1521.965,1509.009C1524.925,1501.577 1526.406,1492.727 1526.406,1482.46C1526.406,1468.288 1524.201,1457.391 1519.792,1449.77Z" style="fill-rule:nonzero;"/>
                <path d="M1632.431,1450.526L1632.431,1553.509L1605.126,1553.509L1605.126,1450.526L1632.431,1450.526ZM1632.431,1413.395L1632.431,1438.243L1605.126,1438.243L1605.126,1413.395L1632.431,1413.395Z" style="fill-rule:nonzero;"/>
                <path d="M1716.631,1571.554C1719.528,1574.01 1724.41,1575.239 1731.275,1575.239C1740.975,1575.239 1747.463,1571.995 1750.738,1565.508C1752.88,1561.351 1753.95,1554.359 1753.95,1544.533L1753.95,1537.919C1751.368,1542.328 1748.596,1545.635 1745.636,1547.839C1740.282,1551.933 1733.322,1553.98 1724.756,1553.98C1711.529,1553.98 1700.963,1549.335 1693.058,1540.044C1685.153,1530.753 1681.201,1518.172 1681.201,1502.299C1681.201,1486.993 1685.012,1474.128 1692.633,1463.704C1700.254,1453.28 1711.057,1448.068 1725.04,1448.068C1730.205,1448.068 1734.708,1448.855 1738.551,1450.43C1745.102,1453.138 1750.392,1458.114 1754.424,1465.358L1754.424,1450.525L1780.595,1450.525L1780.595,1548.217C1780.595,1561.507 1778.359,1571.522 1773.887,1578.262C1766.203,1589.852 1751.464,1595.646 1729.67,1595.646C1716.506,1595.646 1705.767,1593.064 1697.452,1587.899C1689.138,1582.734 1684.54,1575.018 1683.658,1564.751L1712.947,1564.751C1713.703,1567.9 1714.931,1570.168 1716.632,1571.554L1716.631,1571.554ZM1712.096,1518.362C1715.749,1527.054 1722.3,1531.4 1731.748,1531.4C1738.047,1531.4 1743.369,1529.022 1747.715,1524.267C1752.061,1519.512 1754.234,1511.937 1754.234,1501.545C1754.234,1491.782 1752.171,1484.35 1748.046,1479.248C1743.92,1474.146 1738.393,1471.595 1731.465,1471.595C1722.017,1471.595 1715.498,1476.036 1711.908,1484.917C1710.018,1489.641 1709.074,1495.467 1709.074,1502.396C1709.074,1508.38 1710.082,1513.702 1712.097,1518.363L1712.096,1518.362Z" style="fill-rule:nonzero;"/>
                <path d="M1862.433,1450.526L1862.433,1553.509L1835.128,1553.509L1835.128,1450.526L1862.433,1450.526ZM1862.433,1413.395L1862.433,1438.243L1835.128,1438.243L1835.128,1413.395L1862.433,1413.395Z" style="fill-rule:nonzero;"/>
                <path d="M2014.866,1461.674C2021.983,1452.604 2034.203,1448.069 2051.524,1448.069C2062.799,1448.069 2072.813,1450.305 2081.569,1454.777C2090.324,1459.249 2094.702,1467.689 2094.702,1480.098L2094.702,1527.338C2094.702,1530.613 2094.765,1534.581 2094.891,1539.242C2095.08,1542.769 2095.615,1545.163 2096.497,1546.422C2097.379,1547.682 2098.702,1548.721 2100.465,1549.54L2100.465,1553.508L2071.176,1553.508C2070.357,1551.429 2069.79,1549.477 2069.475,1547.65C2069.16,1545.823 2068.908,1543.745 2068.719,1541.414C2065.003,1545.445 2060.72,1548.878 2055.87,1551.712C2050.075,1555.05 2043.525,1556.719 2036.218,1556.719C2026.896,1556.719 2019.196,1554.058 2013.118,1548.735C2007.04,1543.413 2004.001,1535.87 2004.001,1526.107C2004.001,1513.447 2008.882,1504.282 2018.645,1498.613C2023.999,1495.527 2031.872,1493.322 2042.265,1491.999L2051.43,1490.865C2056.406,1490.235 2059.965,1489.448 2062.106,1488.503C2065.948,1486.865 2067.869,1484.314 2067.869,1480.85C2067.869,1476.63 2066.405,1473.717 2063.476,1472.111C2060.547,1470.505 2056.248,1469.702 2050.579,1469.702C2044.217,1469.702 2039.714,1471.277 2037.068,1474.426C2035.178,1476.757 2033.919,1479.906 2033.289,1483.874L2007.307,1483.874C2007.874,1474.867 2010.393,1467.466 2014.865,1461.671L2014.866,1461.674ZM2034.896,1534.046C2037.415,1536.125 2040.502,1537.164 2044.155,1537.164C2049.95,1537.164 2055.288,1535.463 2060.169,1532.062C2065.05,1528.661 2067.586,1522.457 2067.775,1513.449L2067.775,1503.434C2066.074,1504.505 2064.358,1505.371 2062.626,1506.032C2060.894,1506.693 2058.516,1507.307 2055.493,1507.874L2049.446,1509.008C2043.777,1510.016 2039.715,1511.244 2037.258,1512.693C2033.101,1515.149 2031.022,1518.96 2031.022,1524.125C2031.022,1528.723 2032.313,1532.03 2034.896,1534.045L2034.896,1534.046Z" style="fill-rule:nonzero;"/>
                <rect x="2148.197" y="1414.245" width="26.927" height="139.263"/>
                <path d="M1947.956,1422.826L1947.956,1422.748L1921.313,1442.808L1911.406,1450.238L1947.956,1422.826ZM1947.956,1422.824L1947.956,1451.47L1964.679,1451.47L1964.679,1470.649L1947.956,1470.649L1947.956,1525.069C1947.956,1529.289 1948.491,1531.919 1949.562,1532.958C1950.633,1533.997 1953.908,1534.517 1959.388,1534.517C1960.207,1534.517 1961.073,1534.501 1961.986,1534.47C1962.899,1534.439 1963.797,1534.391 1964.679,1534.328L1964.679,1554.452L1951.924,1554.924C1939.201,1555.365 1930.509,1553.16 1925.848,1548.31C1922.825,1545.224 1921.313,1540.468 1921.313,1534.044L1921.313,1470.648L1906.952,1470.648L1906.952,1451.469L1921.313,1451.469L1921.313,1442.807L1947.956,1422.824Z"/>
            </g>
        </g>
    </g>
</svg>
